<svg xmlns="http://www.w3.org/2000/svg" version="1.1" xmlns:xlink="http://www.w3.org/1999/xlink" xmlns:svgjs="http://svgjs.dev/svgjs" width="1000" height="1000" viewBox="0 0 1000 1000"><rect width="1000" height="1000" fill="#ffffff"></rect><g transform="matrix(0.7,0,0,0.7,149.57575757575756,399.93672641955607)"><svg viewBox="0 0 396 114" data-background-color="#ffffff" preserveAspectRatio="xMidYMid meet" height="287" width="1000" xmlns="http://www.w3.org/2000/svg" xmlns:xlink="http://www.w3.org/1999/xlink"><defs></defs><g id="tight-bounds" transform="matrix(1,0,0,1,0.2400000000000091,-0.21944654967342103)"><svg viewBox="0 0 395.52 114.43889309934681" height="114.43889309934681" width="395.52"><g><svg viewBox="0 0 395.52 114.43889309934681" height="114.43889309934681" width="395.52"><g><svg viewBox="0 0 395.52 114.43889309934681" height="114.43889309934681" width="395.52"><g><svg viewBox="0 0 395.52 114.43889309934681" height="114.43889309934681" width="395.52"><g><rect width="395.52" height="88.7625999377916" fill="none" stroke-width="9.018103199999999" stroke="#8b3c7f" data-fill-palette-color="none" data-stroke-palette-color="tertiary"></rect><rect width="395.52" height="25.67629316155521" y="88.7625999377916" fill="#8b3c7f" data-fill-palette-color="tertiary"></rect></g><g><svg viewBox="0 0 395.52 88.7625999377916" height="88.7625999377916" width="395.52"><g transform="matrix(1,0,0,1,23.607599999999998,23.6076)"><svg width="348.3048" viewBox="1.75 -36.75 321.4800109863281 38.349998474121094" height="41.5473999377916" data-palette-color="#8b3c7f"><path d="M34.9-32.5L34.9-32.5 39.5-32.5 39.5-35 28.95-35 28.95-32.5 32.25-32.5Q29.45-25.75 26.63-19.07 23.8-12.4 20.9-5.65L20.9-5.65 20.45-4.2 20-5.65Q17.15-12.4 14.33-19.07 11.5-25.75 8.65-32.5L8.65-32.5 12.3-32.5 12.3-35 1.75-35 1.75-32.5 6-32.5Q9.6-23.9 13.23-15.45 16.85-7 20.45 1.6L20.45 1.6Q24.05-7 27.68-15.45 31.3-23.9 34.9-32.5ZM43 0L53.55 0 53.55-2.5 49.5-2.5 49.5-32.5 53.55-32.5 53.55-35 43-35 43-32.5 46.9-32.5 46.9-2.5 43-2.5 43 0ZM57.05 0L65.84 0Q71.15 0 74.82-1.63 78.5-3.25 80.8-5.8L80.8-5.8Q83.09-8.3 84.12-11.4 85.15-14.5 85.15-17.45L85.15-17.45Q85.15-21.5 83.75-24.73 82.34-27.95 79.95-30.25L79.95-30.25Q77.55-32.55 74.34-33.77 71.15-35 67.55-35L67.55-35 57.05-35 57.05-32.5 60-32.5 60-2.5 57.05-2.5 57.05 0ZM62.59-2.5L62.59-32.5 67.4-32.5Q70.55-32.5 73.3-31.45 76.05-30.4 78.15-28.5L78.15-28.5Q80.2-26.5 81.37-23.73 82.55-20.95 82.55-17.5L82.55-17.5Q82.55-14.5 81.52-11.8 80.5-9.1 78.55-7.05L78.55-7.05Q76.5-5 73.52-3.75 70.55-2.5 66.7-2.5L66.7-2.5 62.59-2.5ZM88.64 0L113.69 0 113.69-7.7 111.19-7.7 111.19-2.5 94.64-2.5 94.64-16.4 111.04-16.4 111.04-18.9 94.64-18.9 94.64-32.5 110.49-32.5 110.49-27.3 112.99-27.3 112.99-35 88.64-35 88.64-32.5 92.04-32.5 92.04-2.5 88.64-2.5 88.64 0ZM147.69-4.85L147.69-4.85Q150.14-7.25 151.56-10.5 152.99-13.75 152.99-17.45L152.99-17.45Q152.99-21.15 151.56-24.43 150.14-27.7 147.69-30.1L147.69-30.1Q145.29-32.55 142.02-33.98 138.74-35.4 135.04-35.4L135.04-35.4Q131.34-35.4 128.09-33.98 124.84-32.55 122.44-30.1L122.44-30.1Q119.99-27.7 118.59-24.43 117.19-21.15 117.19-17.45L117.19-17.45Q117.19-13.75 118.59-10.5 119.99-7.25 122.44-4.85L122.44-4.85Q124.84-2.4 128.09-1 131.34 0.4 135.04 0.4L135.04 0.4Q138.74 0.4 142.02-1 145.29-2.4 147.69-4.85ZM124.29-6.6L124.29-6.6Q122.19-8.65 120.99-11.45 119.79-14.25 119.79-17.45L119.79-17.45Q119.79-20.6 120.99-23.43 122.19-26.25 124.29-28.35L124.29-28.35Q126.34-30.45 129.12-31.68 131.89-32.9 135.09-32.9L135.09-32.9Q138.24-32.9 141.02-31.68 143.79-30.45 145.89-28.35L145.89-28.35Q147.99-26.25 149.19-23.45 150.39-20.65 150.39-17.45L150.39-17.45Q150.39-14.25 149.17-11.45 147.94-8.65 145.89-6.6L145.89-6.6Q143.79-4.5 140.97-3.3 138.14-2.1 134.99-2.1L134.99-2.1Q131.84-2.1 129.09-3.3 126.34-4.5 124.29-6.6ZM171.49 0L183.54 0Q185.64 0 187.61-0.58 189.59-1.15 191.14-2.3L191.14-2.3Q192.64-3.4 193.56-5.08 194.49-6.75 194.49-9L194.49-9Q194.49-10.8 193.89-12.25 193.29-13.7 192.29-14.8L192.29-14.8Q191.24-15.9 189.89-16.6 188.54-17.3 187.09-17.6L187.09-17.6Q190.19-18.45 191.69-20.8 193.19-23.15 193.19-26.25L193.19-26.25Q193.19-28.55 192.44-30.23 191.69-31.9 190.29-32.95L190.29-32.95Q188.89-34 186.94-34.5 184.99-35 182.64-35L182.64-35 171.49-35 171.49-32.5 174.34-32.5 174.34-2.5 171.49-2.5 171.49 0ZM176.94-2.5L176.94-16.35 182.49-16.35Q184.29-16.35 185.99-15.93 187.69-15.5 189.04-14.65L189.04-14.65Q190.34-13.8 191.11-12.45 191.89-11.1 191.89-9.3L191.89-9.3Q191.89-7.6 191.21-6.33 190.54-5.05 189.39-4.2L189.39-4.2Q188.19-3.3 186.61-2.9 185.04-2.5 183.29-2.5L183.29-2.5 176.94-2.5ZM176.94-18.85L176.94-32.5 183.04-32.5Q184.69-32.5 186.04-32.15 187.39-31.8 188.39-31.05L188.39-31.05Q189.44-30.3 190.01-29.03 190.59-27.75 190.59-25.95L190.59-25.95Q190.59-22.75 188.61-20.8 186.64-18.85 183.19-18.85L183.19-18.85 176.94-18.85ZM197.98 0L222.93 0 222.93-7.7 220.43-7.7 220.43-2.5 203.83-2.5 203.83-32.5 207.98-32.5 207.98-35 197.98-35 197.98-32.5 201.23-32.5 201.23-2.5 197.98-2.5 197.98 0ZM226.43 0L236.43 0 236.43-2.5 232.98-2.5Q234.48-6 235.58-8.6 236.68-11.2 238.18-14.75L238.18-14.75 251.48-14.75Q252.78-11.65 254.06-8.6 255.33-5.55 256.63-2.5L256.63-2.5 253.23-2.5 253.23 0 263.23 0 263.23-2.5 259.28-2.5Q255.68-11.1 252.06-19.55 248.43-28 244.83-36.6L244.83-36.6Q241.23-28 237.61-19.55 233.98-11.1 230.33-2.5L230.33-2.5 226.43-2.5 226.43 0ZM244.33-29.35L244.33-29.35Q244.43-29.65 244.56-29.98 244.68-30.3 244.78-30.8L244.78-30.8 245.28-29.35 250.38-17.2 239.23-17.2Q240.48-20.15 241.78-23.23 243.08-26.3 244.33-29.35ZM266.73 0L294.68 0 294.68-10.55 292.18-10.55 292.18-2.5 269.98-2.5 293.23-32.5 293.23-35 270.18-35 270.18-36.75 267.53-36.75 267.53-32.5 289.98-32.5 266.73-2.5 266.73 0ZM298.18 0L323.23 0 323.23-7.7 320.73-7.7 320.73-2.5 304.18-2.5 304.18-16.4 320.57-16.4 320.57-18.9 304.18-18.9 304.18-32.5 320.03-32.5 320.03-27.3 322.53-27.3 322.53-35 298.18-35 298.18-32.5 301.57-32.5 301.57-2.5 298.18-2.5 298.18 0Z" opacity="1" transform="matrix(1,0,0,1,0,0)" fill="#000000" class="undefined-text-0" data-fill-palette-color="primary" id="text-0"></path></svg></g></svg></g></svg></g></svg></g></svg></g></svg><rect width="395.52" height="114.43889309934681" fill="none" stroke="none" visibility="hidden"></rect></g></svg></g></svg>